<svg xmlns="http://www.w3.org/2000/svg" version="1.1" xmlns:xlink="http://www.w3.org/1999/xlink" xmlns:svgjs="http://svgjs.dev/svgjs" width="100%" height="100%" viewBox="0 0 1000 600"><rect width="1000" height="600" x="0" y="0" fill="#1111"/><g><circle r="166.66666666666666" cx="374.3819224039713" cy="396.60418353178136" fill="#e60023" transform="matrix(0.6017852348710646,0,0,0.6017852348710645,0,61.329456046302866)"/><path d="M333.36802681604297 459.79863105069796L333.36802681604297 335.40974216180905L317.7846934827096 332.99307549514236L317.7846934827096 322.99307549514236L344.36802681604297 322.99307549514236Q351.5624712604874 322.99307549514236 358.5624712604874 322.40974216180905L358.5624712604874 322.40974216180905Q369.36802681604297 321.6041866062535 378.97913792715406 321.6041866062535L378.97913792715406 321.6041866062535Q407.97913792715406 321.79863105069796 419.97913792715406 332.40974216180905Q431.97913792715406 342.9930754951424 431.97913792715406 364.40974216180905L431.97913792715406 364.40974216180905Q431.97913792715406 380.40974216180905 424.5624712604874 392.2152977173646Q417.1735823715985 403.9930754951424 404.0624712604874 410.2152977173646Q390.97913792715406 416.40974216180905 373.97913792715406 416.40974216180905L373.97913792715406 416.40974216180905Q368.1735823715985 416.40974216180905 362.1735823715985 416.1041866062535Q356.1735823715985 415.79863105069796 354.7846934827096 415.6041866062535L354.7846934827096 415.6041866062535L354.7846934827096 459.6041866062535L382.1735823715985 461.79863105069796L382.1735823715985 471.6041866062535L316.7846934827096 471.6041866062535L316.7846934827096 461.79863105069796L333.36802681604297 459.79863105069796ZM354.7846934827096 404.6041866062535Q360.36802681604297 405.6041866062535 373.97913792715406 405.6041866062535L373.97913792715406 405.6041866062535Q389.7846934827096 405.6041866062535 399.6735823715985 395.9930754951424Q409.5624712604874 386.40974216180905 409.5624712604874 364.6041866062535L409.5624712604874 364.6041866062535Q409.5624712604874 347.40974216180905 400.97913792715406 339.9097421618091Q392.36802681604297 332.40974216180905 374.1735823715985 332.40974216180905L374.1735823715985 332.40974216180905Q367.7846934827096 332.40974216180905 360.5624712604874 333.21529771736465L360.5624712604874 333.21529771736465Q356.1735823715985 333.6041866062535 354.7846934827096 333.6041866062535L354.7846934827096 333.6041866062535L354.7846934827096 404.6041866062535Z " fill="#ffffff" transform="matrix(0.6017852348710646,0,0,0.6017852348710645,0,61.329456046302866)"/><path d="M639.8509079450382 458.5449376087235L639.8509079450382 342.5145338979041L625.3147184671977 340.2602585243352L625.3147184671977 330.93222249577445L650.111747576455 330.93222249577445Q656.8227512747807 330.93222249577445 663.3523764947731 330.3880870607751L663.3523764947731 330.3880870607751Q673.4318376478568 329.6366619362521 682.3971167197514 329.6366619362521L682.3971167197514 329.6366619362521Q709.4484212025775 329.81804041458525 720.6420644368504 339.71612308933584Q731.8357076711233 349.58829455289595 731.8357076711233 369.56583838073016L731.8357076711233 369.56583838073016Q731.8357076711233 384.4906960264274 724.9174142832741 395.50296078236715Q718.0250321066153 406.48931432711646 705.7949404247246 412.29342563377645Q693.5907599540243 418.071625729246 677.733098705471 418.071625729246L677.733098705471 418.071625729246Q672.3176555666677 418.071625729246 666.7208339495312 417.78660240615113Q661.1240123323948 417.5015790830562 659.8284517728725 417.32020060472314L659.8284517728725 417.32020060472314L659.8284517728725 458.3635591303904L685.3769060066527 460.41054481443564L685.3769060066527 469.5572023646632L624.3819148643416 469.5572023646632L624.3819148643416 460.41054481443564L639.8509079450382 458.5449376087235ZM659.8284517728725 407.0593609733063Q665.0366052221523 407.99216457616234 677.733098705471 407.99216457616234L677.733098705471 407.99216457616234Q692.476577872835 407.99216457616234 701.700969056634 399.02688550426785Q710.925360240433 390.08751764356384 710.925360240433 369.7472168590633L710.925360240433 369.7472168590633Q710.925360240433 353.70817713217696 702.918795982585 346.7121501107564Q694.8863205135466 339.71612308933584 677.9144771838041 339.71612308933584L677.9144771838041 339.71612308933584Q671.9548986100015 339.71612308933584 665.2179837004853 340.4675482138588L665.2179837004853 340.4675482138588Q661.1240123323948 340.83030517052504 659.8284517728725 340.83030517052504L659.8284517728725 340.83030517052504L659.8284517728725 407.0593609733063ZM766.8935764117974 347.35993039051755Q760.9339978379948 347.35993039051755 757.9542085510934 343.9914729357595Q754.9744192641921 340.6489266921919 754.9744192641921 335.4148620317217L754.9744192641921 335.4148620317217Q754.9744192641921 329.455283457919 758.6019888308546 325.5426905681616Q762.229558397517 321.6041864672137 768.5778051391765 321.6041864672137L768.5778051391765 321.6041864672137Q774.9260518808359 321.6041864672137 777.9058411677372 324.9726439219718Q780.8856304546385 328.3411013767298 780.8856304546385 333.54925482600953L780.8856304546385 333.54925482600953Q780.8856304546385 339.89750156766894 777.2580608879761 343.6287159790932Q773.6304913213136 347.35993039051755 767.100866101321 347.35993039051755L767.100866101321 347.35993039051755L766.8935764117974 347.35993039051755ZM759.4311475889489 458.7263160870566L759.4311475889489 380.37081344714636L745.2577150677746 377.0282672035788L745.2577150677746 367.13018452882824L774.1746267563129 363.58034859573706L774.5632949241697 363.58034859573706L778.8386447705933 366.9488060504951L778.8386447705933 458.9336057765802L793.7635024162905 460.41054481443564L793.7635024162905 469.5572023646632L744.3249114649185 469.5572023646632L744.3249114649185 460.41054481443564L759.4311475889489 458.7263160870566ZM818.1977745688815 458.7263160870566L818.1977745688815 380.37081344714636L804.7757671722302 377.0282672035788L804.7757671722302 366.9488060504951L831.4643146983901 363.58034859573706L832.0084501333895 363.58034859573706L835.9210430231469 366.9488060504951L835.9210430231469 374.77399183000995L835.7396645448139 379.2566313659572Q842.4506682431395 373.2970527921545 853.4629329990793 368.451656299541Q864.475197755019 363.58034859573706 874.5546589081027 363.58034859573706L874.5546589081027 363.58034859573706Q886.292437577375 363.58034859573706 892.7443291637961 368.0629881316843Q899.1703095390269 372.54562766763155 901.787341869262 381.7700188514305Q904.404374199497 391.0203212464199 904.404374199497 406.69660401664004L904.404374199497 406.69660401664004L904.404374199497 458.9336057765802L917.4636246394821 460.2291663361025L917.4636246394821 469.5572023646632L873.2331871373899 469.5572023646632L873.2331871373899 460.41054481443564L884.8154985395195 458.9336057765802L884.8154985395195 406.48931432711646Q884.8154985395195 395.50296078236715 883.3126482904736 389.2324476742791Q881.8357092526182 382.9878457773815 877.7158266733372 379.90441164571837Q873.6218553052466 376.84688872524566 865.7707583145414 376.84688872524566L865.7707583145414 376.84688872524566Q859.0597546162157 376.84688872524566 851.4159473150339 380.18943496881326Q843.7721400138522 383.55789242357133 837.7866502288591 388.04053195951855L837.7866502288591 388.04053195951855L837.7866502288591 458.7263160870566L850.4831437121779 460.41054481443564L850.4831437121779 469.5572023646632L806.4599958996092 469.5572023646632L806.4599958996092 460.41054481443564L818.1977745688815 458.7263160870566ZM962.7823330115731 471.4228095703754Q952.1587364234899 471.4228095703754 946.9246717630198 466.5774130777619Q941.7165183137402 461.7320165851484 941.7165183137402 449.9683267046857L941.7165183137402 449.9683267046857L941.7165183137402 378.3238277631011L928.2685997058983 378.3238277631011L928.2685997058983 369.9285953373964Q929.2014033087544 369.7472168590633 933.5026643663684 368.6330347778741Q937.8039254239827 367.5188526966849 939.2808644618381 366.5860490938288L939.2808644618381 366.5860490938288Q942.2606537487394 364.90182036644984 943.9448824761184 359.84913418431273L943.9448824761184 359.84913418431273Q945.4477327251643 356.32520946241203 947.4947184092096 348.47411247170675Q949.5417040932548 340.6489266921919 949.9303722611116 339.146076443146L949.9303722611116 339.146076443146L960.9167258058609 339.146076443146L961.3053939737176 366.01600244763904L992.4506698246344 366.01600244763904L992.4506698246344 378.3238277631011L961.3053939737176 378.3238277631011L961.3053939737176 435.6135157051783Q961.3053939737176 446.2371122932614 961.9531742534788 450.53837335087553Q962.6009545332399 454.81372319729917 964.751585062047 456.135194968012Q966.902215590854 457.4307555275343 972.1103690401337 457.4307555275343L972.1103690401337 457.4307555275343Q977.1630552222709 457.4307555275343 983.2262786408353 456.135194968012Q989.2895020593999 454.81372319729917 992.6320483029674 453.3367841594437L992.6320483029674 453.3367841594437L995.4304591115357 461.7320165851484Q990.9737307867788 465.074562828716 980.9720032672665 468.2616418051409Q970.9961869589446 471.4228095703754 962.7823330115731 471.4228095703754L962.7823330115731 471.4228095703754ZM1052.720147053613 471.6041880487086Q1030.151482106734 471.6041880487086 1018.2841473815095 456.86070888134446Q1006.4427238674755 442.1431409251709 1006.4427238674755 417.5015790830562L1006.4427238674755 417.5015790830562Q1006.4427238674755 401.2811608778367 1012.6095921308017 388.97333556237464Q1018.7505491829374 376.6395990357221 1029.866458783639 369.9285953373964Q1040.9564571731503 363.2175916390708 1055.1298896943244 363.2175916390708L1055.1298896943244 363.2175916390708Q1072.4904011919236 363.2175916390708 1082.1034605435793 372.83065099072644Q1091.7165198952348 382.44371034238213 1092.2606553302344 400.34835727498063L1092.2606553302344 400.34835727498063Q1092.2606553302344 411.72337898758667 1090.9650947707119 417.68295756138934L1090.9650947707119 417.68295756138934L1026.783024651976 417.68295756138934Q1027.1457816086422 436.15765114017773 1035.3596355560137 447.4549392192124Q1043.5734895033852 458.7263160870566 1058.6797256274156 458.7263160870566L1058.6797256274156 458.7263160870566Q1066.1421544502641 458.7263160870566 1074.252363552874 456.0315501232502Q1082.388483866674 453.3367841594437 1086.845212191431 449.60556974801943L1086.845212191431 449.60556974801943L1090.395048124522 457.79351248420056Q1084.9796049857187 463.390334101337 1074.3560083976358 467.510216680618Q1063.7324118095528 471.6041880487086 1052.720147053613 471.6041880487086L1052.720147053613 471.6041880487086ZM1026.9644031303092 407.81078609782924L1071.7389760674007 407.81078609782924Q1072.3090227135904 403.8981932080718 1072.3090227135904 399.7783106287908L1072.3090227135904 399.7783106287908Q1072.1276442352573 387.65186379166187 1067.178602897882 380.6558367702413Q1062.2295615605067 373.65980974882075 1051.6059649724236 373.65980974882075L1051.6059649724236 373.65980974882075Q1040.775078694817 373.65980974882075 1034.3490983195863 381.51090673952604Q1027.8972067331651 389.3360925190409 1026.9644031303092 407.81078609782924L1026.9644031303092 407.81078609782924ZM1108.6883632249774 469.5572023646632L1108.6883632249774 460.41054481443564L1122.6804172678185 459.29636273324644L1122.6804172678185 380.37081344714636L1109.2324986599767 377.0282672035788L1109.2324986599767 366.9488060504951L1134.9882425832807 363.58034859573706L1135.3509995399468 363.58034859573706L1139.4708821192278 366.9488060504951L1139.4708821192278 370.31726350525315L1138.9008354730381 384.85345298309363L1139.4708821192278 384.85345298309363Q1141.33648932494 381.6922852178592 1146.1818858175534 376.6395990357221Q1151.0272823101668 371.6128240647755 1158.6710896113486 367.4152078519231Q1166.3408081237208 363.2175916390708 1175.280175984425 363.2175916390708L1175.280175984425 363.2175916390708Q1179.011390395849 363.2175916390708 1181.4470442477511 364.15039524192684L1181.4470442477511 364.15039524192684L1181.4470442477511 385.0348314614268Q1180.1255724770385 384.1020278585707 1177.2494280348988 383.2728691004764Q1174.347372381569 382.44371034238213 1170.7975364484776 382.44371034238213L1170.7975364484776 382.44371034238213Q1155.328543367781 382.44371034238213 1142.087914449463 391.953124849276L1142.087914449463 391.953124849276L1142.087914449463 459.11498425491334L1165.7707614775309 460.5919232927688L1165.7707614775309 469.5572023646632L1108.6883632249774 469.5572023646632ZM1239.643624581494 471.6041880487086Q1217.074959634615 471.6041880487086 1205.233536120581 456.86070888134446Q1193.392112606547 442.1431409251709 1193.392112606547 417.5015790830562L1193.392112606547 417.5015790830562Q1193.392112606547 401.2811608778367 1199.5330696586827 388.97333556237464Q1205.6999379220092 376.6395990357221 1216.7899363115203 369.9285953373964Q1227.9058459122216 363.2175916390708 1242.079278433396 363.2175916390708L1242.079278433396 363.2175916390708Q1259.4138787198046 363.2175916390708 1269.0269380714603 372.83065099072644Q1278.639997423116 382.44371034238213 1279.2100440693057 400.34835727498063L1279.2100440693057 400.34835727498063Q1279.2100440693057 411.72337898758667 1277.8885722985929 417.68295756138934L1277.8885722985929 417.68295756138934L1213.7065021798571 417.68295756138934Q1214.0951703477137 436.15765114017773 1222.3090242950852 447.4549392192124Q1230.4969670312662 458.7263160870566 1245.629114366487 458.7263160870566L1245.629114366487 458.7263160870566Q1253.0915431893359 458.7263160870566 1261.2017522919455 456.0315501232502Q1269.3119613945553 453.3367841594437 1273.7946009305024 449.60556974801943L1273.7946009305024 449.60556974801943L1277.3444368635937 457.79351248420056Q1271.9289937247904 463.390334101337 1261.2794859255168 467.510216680618Q1250.6558893374336 471.6041880487086 1239.643624581494 471.6041880487086L1239.643624581494 471.6041880487086ZM1213.9137918693805 407.81078609782924L1258.6883648064722 407.81078609782924Q1259.2325002414714 403.8981932080718 1259.2325002414714 399.7783106287908L1259.2325002414714 399.7783106287908Q1259.0511217631383 387.65186379166187 1254.1020804257632 380.6558367702413Q1249.153039088388 373.65980974882075 1238.5294425003049 373.65980974882075L1238.5294425003049 373.65980974882075Q1227.6985562226982 373.65980974882075 1221.2725758474676 381.51090673952604Q1214.846595472237 389.3360925190409 1213.9137918693805 407.81078609782924L1213.9137918693805 407.81078609782924ZM1309.2411378390334 440.0702440299351L1312.583684082601 454.63234471896607Q1314.449291288313 457.4307555275343 1320.5125147068775 459.6591196899127Q1326.575738125442 461.9133950634815 1333.3126530349582 461.9133950634815L1333.3126530349582 461.9133950634815Q1343.9362496230412 461.9133950634815 1348.963024593988 457.79351248420056Q1354.015710776125 453.69954111611 1354.015710776125 446.4184907715945L1354.015710776125 446.4184907715945Q1354.015710776125 441.39171580064794 1350.8286317997 437.6605013892236Q1347.6674640344654 433.92928697779934 1341.9669975725674 431.0272313244693Q1336.2924423218594 428.15108688232976 1325.642934522586 424.03120430304875L1325.642934522586 424.03120430304875Q1311.2881235230786 418.61576116424544 1304.6548534583244 411.0755987078255Q1298.0474946047605 403.5095250402151 1298.0474946047605 391.20169972475304L1298.0474946047605 391.20169972475304Q1298.0474946047605 382.9878457773815 1302.9965359421358 376.84688872524566Q1307.9196660683206 370.6800204619194 1316.59992181712 367.23382937359Q1325.2801775659198 363.78763828526064 1335.9037741540028 363.78763828526064L1335.9037741540028 363.78763828526064Q1344.506296269231 363.78763828526064 1350.9322766444618 365.08319884478294Q1357.3582570196925 366.3787594043053 1361.2967611206404 367.700231175018Q1365.2093540103979 368.9957917345404 1366.5049145699202 369.38445990239705L1366.5049145699202 369.38445990239705L1366.5049145699202 392.49726028427534L1355.1298928573142 392.49726028427534L1351.3986784458898 378.7124959309578Q1350.2844963647008 376.458220557389 1345.4390998720871 374.87763667477174Q1340.5677921682832 373.2970527921545 1334.6082135944805 373.2970527921545L1334.6082135944805 373.2970527921545Q1326.2129811687757 373.2970527921545 1321.0825613530674 377.0282672035788Q1315.952141537359 380.7594816150031 1315.952141537359 387.1077283566625L1315.952141537359 387.1077283566625Q1315.952141537359 392.7045499737989 1318.6469075011655 396.33211954046146Q1321.367584676162 399.95968910712395 1325.4615560442528 402.21396448069277Q1329.5814386235338 404.44232864307116 1336.6551992785257 407.4221179299725L1336.6551992785257 407.4221179299725L1340.3864136899501 408.92496817901844Q1350.8286317997 413.01893954710897 1357.3582570196925 416.7501539585333Q1363.887882239685 420.4813683699576 1368.292788142061 426.5445917885221Q1372.6717828332464 432.60781520708656 1372.6717828332464 441.39171580064794L1372.6717828332464 441.39171580064794Q1372.6717828332464 455.2023913651559 1361.9445414004017 463.390334101337Q1351.2172999675568 471.6041880487086 1332.5612279104353 471.6041880487086L1332.5612279104353 471.6041880487086Q1323.4145703602076 471.6041880487086 1313.4387540518856 469.09080056323523Q1303.462937743564 466.5774130777619 1297.1146910019042 463.9603807475268L1297.1146910019042 463.9603807475268L1297.1146910019042 440.0702440299351L1309.2411378390334 440.0702440299351ZM1421.3589486600954 471.4228095703754Q1410.7353520720123 471.4228095703754 1405.5012874115423 466.5774130777619Q1400.2672227510718 461.7320165851484 1400.2672227510718 449.9683267046857L1400.2672227510718 449.9683267046857L1400.2672227510718 378.3238277631011L1386.8452153544208 378.3238277631011L1386.8452153544208 369.9285953373964Q1387.7780189572768 369.7472168590633 1392.0792800148909 368.6330347778741Q1396.3546298613146 367.5188526966849 1397.8574801103605 366.5860490938288L1397.8574801103605 366.5860490938288Q1400.8372693972617 364.90182036644984 1402.5214981246409 359.84913418431273L1402.5214981246409 359.84913418431273Q1403.998437162496 356.32520946241203 1406.0713340577317 348.47411247170675Q1408.1183197417772 340.6489266921919 1408.4810766984433 339.146076443146L1408.4810766984433 339.146076443146L1419.4933414543834 339.146076443146L1419.8560984110495 366.01600244763904L1451.0272854731568 366.01600244763904L1451.0272854731568 378.3238277631011L1419.8560984110495 378.3238277631011L1419.8560984110495 435.6135157051783Q1419.8560984110495 446.2371122932614 1420.529789902001 450.53837335087553Q1421.1775701817623 454.81372319729917 1423.3282007105693 456.135194968012Q1425.4529200281859 457.4307555275343 1430.6869846886561 457.4307555275343L1430.6869846886561 457.4307555275343Q1435.7137596596026 457.4307555275343 1441.7769830781672 456.135194968012Q1447.8402064967318 454.81372319729917 1451.2086639514898 453.3367841594437L1451.2086639514898 453.3367841594437L1454.007074760058 461.7320165851484Q1449.5244352241107 465.074562828716 1439.5486189157887 468.2616418051409Q1429.5728026074669 471.4228095703754 1421.3589486600954 471.4228095703754L1421.3589486600954 471.4228095703754Z " fill="#e60023" transform="matrix(0.6017852348710646,0,0,0.6017852348710645,0,61.329456046302866)"/></g></svg>